# xmcd
#
# Track frame offsets: 
#        150
#        15886
#        35701
#        52637
#        71597
#        88755
#        107095
#        121961
#        139681
#        157672
#        172276
#        190577
#        207273
#        226412
#        241157
#        257908
#        274706
#        298361
#
# Disc length: 4169 seconds
#
# Revision: 0
# Processed by: cddbd v1.5.2PL0 Copyright (c) Steve Scherf et al.
# Submitted via: ExactAudioCopy v1.1
#
DISCID=f8104712
DTITLE=Various Artist - Q-Music Top 500 Van De 90's 2018 - CD 1
DYEAR=2018
DGENRE=Top 40
TTITLE0=DJ Paul Elstak - Rainbow In The Sky
TTITLE1=Robbie Williams - Let Me Entertain You
TTITLE2=Backstreet Boys - Everybody (Backstreet's Back)
TTITLE3=Blof - Harder Dan Ik Hebben Kan
TTITLE4=Charly Lownoise and Mental Theo - Hardcore Feelings
TTITLE5=Marco Borsato - Dromen Zijn Bedrog
TTITLE6=Britney Spears - (You Drive Me) Crazy
TTITLE7=Roos and Jessica Linda - Ademnood
TTITLE8=Hanson - Mmm Bop
TTITLE9=Party Animals - Aquarius
TTITLE10=Acda and De Munnik - Niet Of Nooit Geweest
TTITLE11=Westlife - If I Let You Go
TTITLE12=Guus Meeuwis and Vagant - Per Spoor (Kedeng, Kedeng)
TTITLE13=Aqua - Barbie Girl
TTITLE14=Extreme - More Than Words
TTITLE15=Volumia! - Hou Me Vast
TTITLE16=All Saints - Never Ever
TTITLE17=Rednex - Cotton Eye Joe
EXTD=
EXTT0=
EXTT1=
EXTT2=
EXTT3=
EXTT4=
EXTT5=
EXTT6=
EXTT7=
EXTT8=
EXTT9=
EXTT10=
EXTT11=
EXTT12=
EXTT13=
EXTT14=
EXTT15=
EXTT16=
EXTT17=
PLAYORDER=
